<?xml version="1.0" standalone="no"?>
<!DOCTYPE svg PUBLIC "-//W3C//DTD SVG 20010904//EN"
 "http://www.w3.org/TR/2001/REC-SVG-20010904/DTD/svg10.dtd">
<svg version="1.0" xmlns="http://www.w3.org/2000/svg"
 width="353.000000pt" height="353.000000pt" viewBox="0 0 353.000000 353.000000"
 preserveAspectRatio="xMidYMid meet">

<g transform="translate(0.000000,353.000000) scale(0.100000,-0.100000)"
fill="#000000" stroke="none">
<path d="M1530 3514 c-278 -38 -558 -148 -790 -312 -122 -86 -326 -290 -412
-412 -122 -172 -214 -369 -268 -572 -78 -298 -78 -608 0 -906 54 -203 146
-400 268 -572 86 -122 290 -326 412 -412 237 -167 514 -275 803 -313 223 -29
453 -13 675 45 309 82 561 228 792 460 232 231 378 483 460 792 78 298 78 608
0 906 -82 309 -228 561 -460 792 -231 232 -483 378 -792 460 -220 58 -466 74
-688 44z"/>
</g>
</svg>
